<?xml version="1.0" standalone="no"?>
<!DOCTYPE svg PUBLIC "-//W3C//DTD SVG 20010904//EN"
 "http://www.w3.org/TR/2001/REC-SVG-20010904/DTD/svg10.dtd">
<svg version="1.0" xmlns="http://www.w3.org/2000/svg"
 width="390.000000pt" height="108.000000pt" viewBox="0 0 390.000000 108.000000"
 preserveAspectRatio="xMidYMid meet">

<g transform="translate(0.000000,108.000000) scale(0.100000,-0.100000)"
fill="#000000" stroke="none">
<path d="M100 540 l0 -480 1870 0 1870 0 0 480 0 480 -1870 0 -1870 0 0 -480z
m3710 440 c3 0 4 -201 2 -447 l-2 -448 -1840 -3 -1840 -2 0 449 0 450 38 3
c25 2 3416 0 3642 -2z"/>
<path d="M196 923 c-3 -3 -6 -179 -6 -390 l0 -383 825 0 825 0 0 390 0 390
-819 0 c-450 0 -821 -3 -825 -7z m452 -265 c3 -16 -5 -18 -57 -18 l-61 0 0
-40 0 -40 60 0 c47 0 60 -3 60 -15 0 -12 -13 -15 -60 -15 l-60 0 0 -45 0 -45
65 0 c51 0 65 -3 65 -15 0 -12 -16 -15 -80 -15 l-80 0 0 133 0 133 72 0 c61
-1 73 -4 76 -18z m134 -101 l3 -112 63 -3 c46 -2 62 -7 62 -17 0 -12 -17 -15
-80 -15 l-80 0 0 135 c0 114 2 134 15 129 11 -5 15 -30 17 -117z m238 -12 c0
-113 -2 -135 -15 -135 -13 0 -15 21 -15 128 0 71 3 132 7 135 19 19 23 -5 23
-128z m253 126 c26 -1 37 -6 37 -16 0 -11 -12 -15 -45 -15 l-45 0 0 -115 c0
-96 -3 -115 -15 -115 -12 0 -15 19 -15 115 l0 115 -45 0 c-32 0 -45 4 -45 14
0 18 20 23 85 20 28 -1 67 -2 88 -3z m249 4 c15 -4 28 -13 28 -21 0 -11 -16
-14 -65 -14 l-65 0 0 -40 0 -40 60 0 c47 0 60 -3 60 -15 0 -12 -13 -15 -61
-15 l-60 0 3 -42 3 -43 63 -3 c46 -2 62 -7 62 -17 0 -12 -17 -15 -80 -15 l-80
0 0 129 c0 115 2 130 18 133 35 8 86 9 114 3z"/>
<path d="M3262 665 c-39 -17 -55 -53 -41 -93 10 -29 31 -45 79 -58 28 -7 50
-22 50 -34 0 -15 -41 -18 -55 -3 -18 18 -55 25 -73 14 -20 -12 5 -57 41 -72
74 -31 150 0 155 64 4 44 -22 71 -84 86 -28 7 -44 17 -44 26 0 23 28 30 49 11
16 -15 81 -23 81 -11 0 4 -7 19 -15 35 -10 20 -27 32 -53 39 -46 14 -50 13
-90 -4z"/>
<path d="M1930 540 l0 -130 95 0 95 0 0 30 c0 30 -1 30 -55 30 -48 0 -55 2
-55 20 0 17 7 20 45 20 43 0 45 1 45 30 0 29 -2 30 -45 30 -38 0 -45 3 -45 20
0 17 7 20 50 20 49 0 50 1 50 30 l0 30 -90 0 -90 0 0 -130z"/>
<path d="M2165 643 c10 -16 29 -43 41 -62 13 -19 20 -39 17 -45 -4 -6 -22 -34
-40 -63 -18 -29 -33 -55 -33 -58 0 -3 18 -5 40 -5 36 0 43 4 61 35 12 19 24
35 28 35 3 0 15 -16 25 -35 17 -32 23 -35 63 -35 l45 0 -23 38 c-12 20 -31 49
-41 64 -10 14 -18 29 -18 32 0 4 16 30 35 59 19 28 35 55 35 59 0 5 -18 8 -39
8 -34 0 -42 -4 -61 -37 l-22 -38 -22 37 c-19 35 -25 38 -65 38 l-43 0 17 -27z"/>
<path d="M2450 539 l0 -130 38 3 c24 2 37 8 38 18 1 8 2 21 3 27 0 7 20 16 43
20 107 17 133 135 41 182 -12 6 -53 11 -92 11 l-71 0 0 -131z m128 62 c8 -4
12 -19 10 -32 -2 -18 -10 -25 -33 -27 -28 -3 -30 -1 -28 30 1 18 2 34 2 36 2
5 37 1 49 -7z"/>
<path d="M2703 540 l-2 -130 94 0 95 0 0 30 c0 30 -1 30 -55 30 -48 0 -55 2
-55 20 0 17 7 20 45 20 25 0 46 3 46 8 9 51 8 52 -42 52 -42 0 -49 3 -49 19 0
17 8 20 53 23 48 3 52 5 52 28 0 25 -1 25 -90 28 l-90 3 -2 -131z"/>
<path d="M2930 540 l0 -130 40 0 40 0 0 67 0 68 48 -67 c41 -59 51 -67 80 -68
l32 0 0 130 0 130 -35 0 c-38 0 -41 -7 -37 -87 1 -18 -1 -33 -6 -33 -4 0 -27
27 -50 60 -39 53 -48 60 -78 60 l-34 0 0 -130z"/>
<path d="M3465 540 l0 -130 93 0 92 0 0 30 c0 30 -1 30 -55 30 -48 0 -55 2
-55 20 0 17 7 20 44 20 50 0 58 6 49 38 -4 18 -13 22 -49 22 -37 0 -44 3 -44
19 0 17 8 20 51 23 48 3 52 5 55 31 l3 27 -92 0 -92 0 0 -130z"/>
</g>
</svg>
